# xmcd
#
# Track frame offsets:
# 150
# 21812
# 44900
# 59993
# 80490
# 92986
# 102247
# 114247
# 134611
# 157349
# 177546
# 193832
# 220738
#
# Disc length: 3681 seconds
#
#
# Revision: 0
# Processed by: cddbd v1.5.2PL0 Copyright (c) Steve Scherf et al.
# Submitted via: FreeRIP 2.00 
#
DISCID=cc0e5f0d
DTITLE=Throwdown - Venom and Tears
DYEAR=2007
DGENRE=Hardcore
TTITLE0=Holy Roller
TTITLE1=Day Of The Dog
TTITLE2=S.C.U.M.
TTITLE3=Americana
TTITLE4=Weight Of The World
TTITLE5=Cancer
TTITLE6=Hellbent (On War)
TTITLE7=No Love
TTITLE8=Venom and Tears
TTITLE9=I'll Never Die A Poisoned Death
TTITLE10=I, Suicide
TTITLE11=Godspeed
TTITLE12=Hidden Track
EXTD=Orange County,CA - Trustkill Records
EXTT0=
EXTT1=
EXTT2=
EXTT3=
EXTT4=
EXTT5=
EXTT6=
EXTT7=
EXTT8=
EXTT9=
EXTT10=
EXTT11=
EXTT12=
PLAYORDER=
